<?xml version="1.0" encoding="UTF-8" standalone="no"?>
<!-- Created with Inkscape (http://www.inkscape.org/) -->

<svg
   xmlns:dc="http://purl.org/dc/elements/1.1/"
   xmlns:cc="http://creativecommons.org/ns#"
   xmlns:rdf="http://www.w3.org/1999/02/22-rdf-syntax-ns#"
   xmlns:svg="http://www.w3.org/2000/svg"
   xmlns="http://www.w3.org/2000/svg"
   xmlns:sodipodi="http://sodipodi.sourceforge.net/DTD/sodipodi-0.dtd"
   xmlns:inkscape="http://www.inkscape.org/namespaces/inkscape"
   width="147.311mm"
   height="94.361mm"
   viewBox="0 0 147.311 94.361"
   version="1.1"
   id="svg5218"
   inkscape:version="0.92.0 r15299"
   sodipodi:docname="drawing.svg">
  <defs
     id="defs5212">
    <inkscape:perspective
       sodipodi:type="inkscape:persp3d"
       inkscape:vp_x="0 : 148.49999 : 1"
       inkscape:vp_y="0 : 999.99993 : 0"
       inkscape:vp_z="210 : 148.49999 : 1"
       inkscape:persp3d-origin="105 : 98.999993 : 1"
       id="perspective5765" />
    <clipPath
       clipPathUnits="userSpaceOnUse"
       id="clipPath5883">
      <rect
         style="fill:#ff0000;fill-opacity:1;stroke:#000000;stroke-width:0.5;stroke-linecap:round;stroke-linejoin:round;stroke-miterlimit:4;stroke-dasharray:none;stroke-dashoffset:0;stroke-opacity:1;paint-order:stroke fill markers"
         id="rect5885"
         width="7.2760415"
         height="6.5200891"
         x="131.9137"
         y="55.378719" />
    </clipPath>
    <clipPath
       clipPathUnits="userSpaceOnUse"
       id="clipPath5889">
      <rect
         style="fill:#ff0000;fill-opacity:1;stroke:#000000;stroke-width:0.5;stroke-linecap:round;stroke-linejoin:round;stroke-miterlimit:4;stroke-dasharray:none;stroke-dashoffset:0;stroke-opacity:1;paint-order:stroke fill markers"
         id="rect5891"
         width="10.156241"
         height="8.8198938"
         x="135.03793"
         y="72.827682" />
    </clipPath>
    <clipPath
       clipPathUnits="userSpaceOnUse"
       id="clipPath5903">
      <rect
         style="fill:#ff0000;fill-opacity:1;stroke:#000000;stroke-width:0.5;stroke-linecap:round;stroke-linejoin:round;stroke-miterlimit:4;stroke-dasharray:none;stroke-dashoffset:0;stroke-opacity:1;paint-order:stroke fill markers"
         id="rect5905"
         width="10.557146"
         height="9.0871639"
         x="108.64507"
         y="83.585281" />
    </clipPath>
    <clipPath
       clipPathUnits="userSpaceOnUse"
       id="clipPath6171">
      <rect
         style="fill:#008dff;fill-opacity:1;stroke:#000000;stroke-width:0.50599998;stroke-linecap:round;stroke-linejoin:round;stroke-miterlimit:4;stroke-dasharray:none;stroke-dashoffset:0;stroke-opacity:1;paint-order:stroke fill markers"
         id="rect6173"
         width="15.501633"
         height="8.4189901"
         x="-195.63113"
         y="-103.65176"
         transform="scale(-1)" />
    </clipPath>
    <clipPath
       clipPathUnits="userSpaceOnUse"
       id="clipPath6193">
      <rect
         style="fill:#008dff;fill-opacity:1;stroke:#000000;stroke-width:0.20392855;stroke-linecap:round;stroke-linejoin:round;stroke-miterlimit:4;stroke-dasharray:none;stroke-dashoffset:0;stroke-opacity:1;paint-order:stroke fill markers"
         id="rect6195"
         width="2.9747665"
         height="2.8745408"
         x="132.14711"
         y="57.211369" />
    </clipPath>
    <clipPath
       clipPathUnits="userSpaceOnUse"
       id="clipPath6461">
      <rect
         style="fill:#ff0000;fill-opacity:1;stroke:#000000;stroke-width:0.56899995;stroke-linecap:round;stroke-linejoin:round;stroke-miterlimit:4;stroke-dasharray:none;stroke-dashoffset:0;stroke-opacity:1;paint-order:stroke fill markers"
         id="rect6463"
         width="7.1343002"
         height="8.0792408"
         x="11.953496"
         y="203.97061" />
    </clipPath>
    <clipPath
       clipPathUnits="userSpaceOnUse"
       id="clipPath6491">
      <path
         style="fill:none;stroke:#000000;stroke-width:0.26458332px;stroke-linecap:butt;stroke-linejoin:miter;stroke-opacity:1"
         d="m 110.22232,89.261761 1.46466,-1.464662 V 86.95846 l 5.43341,-2.929311 2.03162,6.77994 -4.67745,3.23642 z"
         id="path6493"
         inkscape:connector-curvature="0" />
    </clipPath>
  </defs>
  <sodipodi:namedview
     id="base"
     pagecolor="#ffffff"
     bordercolor="#666666"
     borderopacity="1.0"
     inkscape:pageopacity="0.0"
     inkscape:pageshadow="2"
     inkscape:zoom="0.7"
     inkscape:cx="300.38512"
     inkscape:cy="339.79169"
     inkscape:document-units="mm"
     inkscape:current-layer="layer1"
     showgrid="false"
     inkscape:snap-global="false"
     inkscape:window-width="1280"
     inkscape:window-height="962"
     inkscape:window-x="-8"
     inkscape:window-y="-8"
     inkscape:window-maximized="1" />
  <metadata
     id="metadata5215">
    <rdf:RDF>
      <cc:Work
         rdf:about="">
        <dc:format>image/svg+xml</dc:format>
        <dc:type
           rdf:resource="http://purl.org/dc/dcmitype/StillImage" />
        <dc:title></dc:title>
      </cc:Work>
    </rdf:RDF>
  </metadata>
  <g
     inkscape:label="Layer 1"
     inkscape:groupmode="layer"
     id="layer1"
     transform="translate(0,-202.639)">
    <path
       style="fill:#ff0000;fill-opacity:1;stroke:#000000;stroke-width:0.5;stroke-linecap:round;stroke-linejoin:round;stroke-miterlimit:4;stroke-dasharray:none;stroke-opacity:1"
       d="m 127.30931,57.834877 8.36037,-3e-4 3e-4,-2.16199 2.95504,2.95472 -2.95534,2.91868 v -2.12595 l -8.36037,-3.7e-4 c -0.43451,-0.52534 -0.48468,-1.01328 0,-1.58479 z"
       id="path6381"
       inkscape:connector-curvature="0"
       sodipodi:nodetypes="cccccccc"
       clip-path="url(#clipPath5883)"
       transform="rotate(180,108.62401,167.22486)" />
    <path
       transform="translate(63.343145,23.121715)"
       style="fill:#ff0000;fill-opacity:1;stroke:#000000;stroke-width:0.5;stroke-linecap:round;stroke-linejoin:round;stroke-miterlimit:4;stroke-dasharray:none;stroke-opacity:1"
       d="m 7.2626599,207.42012 8.3603761,-2.9e-4 3e-4,-2.16199 2.955039,2.95472 -2.955339,2.91868 v -2.12595 l -8.3603761,-3.7e-4 c -0.43451,-0.52534 -0.48468,-1.01328 0,-1.5848 z"
       id="path6469"
       inkscape:connector-curvature="0"
       sodipodi:nodetypes="cccccccc"
       clip-path="url(#clipPath6461)" />
    <path
       transform="translate(-27.583032,143.09687)"
       clip-path="url(#clipPath5903)"
       style="fill:#ff0000;fill-opacity:1;stroke:#000000;stroke-width:0.5;stroke-linecap:round;stroke-linejoin:round;stroke-miterlimit:4;stroke-dasharray:none;stroke-opacity:1"
       d="m 106.12922,87.476086 8.36037,-3e-4 3e-4,-2.16199 2.95504,2.95472 -2.95534,2.91868 v -2.12595 l -8.36037,-3.7e-4 c -0.43451,-0.52534 -0.48468,-1.01328 0,-1.58479 z"
       id="path6259"
       inkscape:connector-curvature="0"
       sodipodi:nodetypes="cccccccc" />
    <path
       clip-path="url(#clipPath6461)"
       sodipodi:nodetypes="cccccccc"
       inkscape:connector-curvature="0"
       id="path6465"
       d="m 7.2626599,207.42012 8.3603761,-2.9e-4 3e-4,-2.16199 2.955039,2.95472 -2.955339,2.91868 v -2.12595 l -8.3603761,-3.7e-4 c -0.43451,-0.52534 -0.48468,-1.01328 0,-1.5848 z"
       style="fill:#ff0000;fill-opacity:1;stroke:#000000;stroke-width:0.5;stroke-linecap:round;stroke-linejoin:round;stroke-miterlimit:4;stroke-dasharray:none;stroke-opacity:1"
       transform="translate(63.657634,80.763084)" />
    <path
       transform="translate(-27.26125,200.7014)"
       clip-path="url(#clipPath5903)"
       style="fill:#ff0000;fill-opacity:1;stroke:#000000;stroke-width:0.5;stroke-linecap:round;stroke-linejoin:round;stroke-miterlimit:4;stroke-dasharray:none;stroke-opacity:1"
       d="m 106.12922,87.476086 8.36037,-3e-4 3e-4,-2.16199 2.95504,2.95472 -2.95534,2.91868 v -2.12595 l -8.36037,-3.7e-4 c -0.43451,-0.52534 -0.48468,-1.01328 0,-1.58479 z"
       id="path6237"
       inkscape:connector-curvature="0"
       sodipodi:nodetypes="cccccccc" />
    <path
       style="fill:#ff0000;fill-opacity:1;stroke:#000000;stroke-width:0.5;stroke-linecap:round;stroke-linejoin:round;stroke-miterlimit:4;stroke-dasharray:none;stroke-opacity:1"
       d="m 7.2626599,207.42012 8.3603761,-2.9e-4 3e-4,-2.16199 2.955039,2.95472 -2.955339,2.91868 v -2.12595 l -8.3603761,-3.7e-4 c -0.43451,-0.52534 -0.48468,-1.01328 0,-1.5848 z"
       id="path6239"
       inkscape:connector-curvature="0"
       sodipodi:nodetypes="cccccccc"
       clip-path="url(#clipPath6461)"
       transform="translate(-11.953496,79.95516)" />
    <path
       transform="translate(-102.95742,199.86982)"
       clip-path="url(#clipPath5903)"
       style="fill:#ff0000;fill-opacity:1;stroke:#000000;stroke-width:0.5;stroke-linecap:round;stroke-linejoin:round;stroke-miterlimit:4;stroke-dasharray:none;stroke-opacity:1"
       d="m 106.12922,87.476086 8.36037,-3e-4 3e-4,-2.16199 2.95504,2.95472 -2.95534,2.91868 v -2.12595 l -8.36037,-3.7e-4 c -0.43451,-0.52534 -0.48468,-1.01328 0,-1.58479 z"
       id="path6241"
       inkscape:connector-curvature="0"
       sodipodi:nodetypes="cccccccc" />
    <g
       transform="translate(-16.16167,116.32245)"
       id="g6255">
      <g
         id="g6249"
         transform="translate(9.8748956,109.31324)">
        <rect
           style="fill:#d45963;fill-opacity:1;stroke:#000000;stroke-width:1;stroke-linecap:round;stroke-linejoin:round;stroke-miterlimit:4;stroke-dasharray:none;stroke-dashoffset:0;stroke-opacity:1;paint-order:stroke fill markers"
           id="rect6243"
           width="18.708866"
           height="18.708866"
           x="13.883873"
           y="52.038319" />
        <path
           style="fill:#ff6b77;fill-opacity:1;stroke:#000000;stroke-width:0.50591624;stroke-linecap:butt;stroke-linejoin:round;stroke-miterlimit:4;stroke-dasharray:none;stroke-opacity:1"
           d="m 32.904868,51.837864 c 9.3118,-8.552625 9.3118,-8.552625 9.3118,-8.552625 H 23.045321 l -9.311796,8.552625 z"
           id="path6245"
           inkscape:connector-curvature="0" />
        <path
           style="fill:#b14d55;fill-opacity:1;stroke:#000000;stroke-width:0.50599998;stroke-linecap:butt;stroke-linejoin:round;stroke-miterlimit:4;stroke-dasharray:none;stroke-opacity:1"
           d="m 42.283486,62.361607 -9.423475,8.619439 0.0921,-19.190431 9.264552,-8.505377 z"
           id="path6247"
           inkscape:connector-curvature="0"
           sodipodi:nodetypes="ccccc" />
      </g>
      <path
         style="fill:#ff0000;fill-opacity:1;stroke:#000000;stroke-width:0.50599998;stroke-linecap:butt;stroke-linejoin:round;stroke-miterlimit:4;stroke-dasharray:none;stroke-opacity:1"
         d="m 42.686475,171.50736 0.0314,8.91719 -19.242253,-0.10511 0.0184,-8.84986 z"
         id="path6251"
         inkscape:connector-curvature="0"
         sodipodi:nodetypes="ccccc" />
      <path
         style="fill:#dd0000;fill-opacity:1;stroke:#000000;stroke-width:0.50599998;stroke-linecap:butt;stroke-linejoin:round;stroke-miterlimit:4;stroke-dasharray:none;stroke-opacity:1"
         d="m 42.664062,171.57872 9.496652,-8.58373 v 8.67823 l -9.449405,8.7407 z"
         id="path6253"
         inkscape:connector-curvature="0"
         sodipodi:nodetypes="ccccc" />
    </g>
    <path
       sodipodi:nodetypes="cccccccc"
       inkscape:connector-curvature="0"
       id="path6261"
       d="m 27.374184,250.19151 -2.97e-4,-8.36037 -2.161978,-2.9e-4 2.954703,-2.95505 2.918668,2.95534 h -2.125943 l -3.63e-4,8.36037 c -0.525337,0.43451 -1.013279,0.48468 -1.58479,0 z"
       style="fill:#ff0000;fill-opacity:1;stroke:#000000;stroke-width:0.5;stroke-linecap:round;stroke-linejoin:round;stroke-miterlimit:4;stroke-dasharray:none;stroke-opacity:1" />
    <g
       id="g6269"
       transform="translate(0.21802915,166.58253)">
      <rect
         style="fill:#d45963;fill-opacity:1;stroke:#000000;stroke-width:1;stroke-linecap:round;stroke-linejoin:round;stroke-miterlimit:4;stroke-dasharray:none;stroke-dashoffset:0;stroke-opacity:1;paint-order:stroke fill markers"
         id="rect6263"
         width="18.708866"
         height="18.708866"
         x="13.883873"
         y="52.038319" />
      <path
         style="fill:#ff6b77;fill-opacity:1;stroke:#000000;stroke-width:0.50591624;stroke-linecap:butt;stroke-linejoin:round;stroke-miterlimit:4;stroke-dasharray:none;stroke-opacity:1"
         d="m 32.904868,51.837864 c 9.3118,-8.552625 9.3118,-8.552625 9.3118,-8.552625 H 23.045321 l -9.311796,8.552625 z"
         id="path6265"
         inkscape:connector-curvature="0" />
      <path
         style="fill:#b14d55;fill-opacity:1;stroke:#000000;stroke-width:0.50599998;stroke-linecap:butt;stroke-linejoin:round;stroke-miterlimit:4;stroke-dasharray:none;stroke-opacity:1"
         d="m 42.283486,62.361607 -9.423475,8.619439 0.0921,-19.190431 9.264552,-8.505377 z"
         id="path6267"
         inkscape:connector-curvature="0"
         sodipodi:nodetypes="ccccc" />
    </g>
    <path
       sodipodi:nodetypes="cccccccc"
       inkscape:connector-curvature="0"
       id="path6271"
       d="m 22.573001,239.22075 2.97e-4,8.36037 2.161978,3e-4 -2.954703,2.95504 -2.918668,-2.95534 h 2.125943 l 3.63e-4,-8.36037 c 0.525337,-0.43451 1.013279,-0.48468 1.58479,0 z"
       style="fill:#ff0000;fill-opacity:1;stroke:#000000;stroke-width:0.5;stroke-linecap:round;stroke-linejoin:round;stroke-miterlimit:4;stroke-dasharray:none;stroke-opacity:1" />
    <path
       style="fill:none;stroke:#000000;stroke-width:0.5;stroke-linecap:round;stroke-linejoin:round;stroke-miterlimit:4;stroke-dasharray:none;stroke-opacity:1"
       d="m 52.245033,250.19151 -2.97e-4,-8.36037 -2.161978,-2.9e-4 2.954703,-2.95505 2.918668,2.95534 h -2.125943 l -3.63e-4,8.36037 c -0.525337,0.43451 -1.013279,0.48468 -1.58479,0 z"
       id="path6273"
       inkscape:connector-curvature="0"
       sodipodi:nodetypes="cccccccc" />
    <g
       transform="translate(25.088874,166.58253)"
       id="g6281">
      <rect
         y="52.038319"
         x="13.883873"
         height="18.708866"
         width="18.708866"
         id="rect6275"
         style="fill:#d45963;fill-opacity:1;stroke:#000000;stroke-width:1;stroke-linecap:round;stroke-linejoin:round;stroke-miterlimit:4;stroke-dasharray:none;stroke-dashoffset:0;stroke-opacity:1;paint-order:stroke fill markers" />
      <path
         inkscape:connector-curvature="0"
         id="path6277"
         d="m 32.904868,51.837864 c 9.3118,-8.552625 9.3118,-8.552625 9.3118,-8.552625 H 23.045321 l -9.311796,8.552625 z"
         style="fill:#ff6b77;fill-opacity:1;stroke:#000000;stroke-width:0.50591624;stroke-linecap:butt;stroke-linejoin:round;stroke-miterlimit:4;stroke-dasharray:none;stroke-opacity:1" />
      <path
         sodipodi:nodetypes="ccccc"
         inkscape:connector-curvature="0"
         id="path6279"
         d="m 42.283486,62.361607 -9.423475,8.619439 0.0921,-19.190431 9.264552,-8.505377 z"
         style="fill:#b14d55;fill-opacity:1;stroke:#000000;stroke-width:0.50599998;stroke-linecap:butt;stroke-linejoin:round;stroke-miterlimit:4;stroke-dasharray:none;stroke-opacity:1" />
    </g>
    <path
       sodipodi:nodetypes="cccccccc"
       inkscape:connector-curvature="0"
       id="path6283"
       d="m 52.245033,250.19151 -2.97e-4,-8.36037 -2.161978,-2.9e-4 2.954703,-2.95505 2.918668,2.95534 h -2.125943 l -3.63e-4,8.36037 c -0.525337,0.43451 -1.013279,0.48468 -1.58479,0 z"
       style="fill:#ff0000;fill-opacity:1;stroke:#000000;stroke-width:0.5;stroke-linecap:round;stroke-linejoin:round;stroke-miterlimit:4;stroke-dasharray:none;stroke-opacity:1" />
    <path
       style="fill:#ff0000;fill-opacity:1;stroke:#000000;stroke-width:0.5;stroke-linecap:round;stroke-linejoin:round;stroke-miterlimit:4;stroke-dasharray:none;stroke-opacity:1"
       d="m 47.44385,239.22075 2.97e-4,8.36037 2.161978,3e-4 -2.954703,2.95504 -2.918668,-2.95534 h 2.125943 l 3.63e-4,-8.36037 c 0.525337,-0.43451 1.013279,-0.48468 1.58479,0 z"
       id="path6285"
       inkscape:connector-curvature="0"
       sodipodi:nodetypes="cccccccc" />
    <g
       transform="translate(69.538907,171.8742)"
       id="g6293">
      <rect
         y="52.038319"
         x="13.883873"
         height="18.708866"
         width="18.708866"
         id="rect6287"
         style="fill:#d45963;fill-opacity:1;stroke:#000000;stroke-width:1;stroke-linecap:round;stroke-linejoin:round;stroke-miterlimit:4;stroke-dasharray:none;stroke-dashoffset:0;stroke-opacity:1;paint-order:stroke fill markers" />
      <path
         inkscape:connector-curvature="0"
         id="path6289"
         d="m 32.904868,51.837864 c 9.3118,-8.552625 9.3118,-8.552625 9.3118,-8.552625 H 23.045321 l -9.311796,8.552625 z"
         style="fill:#ff6b77;fill-opacity:1;stroke:#000000;stroke-width:0.50591624;stroke-linecap:butt;stroke-linejoin:round;stroke-miterlimit:4;stroke-dasharray:none;stroke-opacity:1" />
      <path
         sodipodi:nodetypes="ccccc"
         inkscape:connector-curvature="0"
         id="path6291"
         d="m 42.283486,62.361607 -9.423475,8.619439 0.0921,-19.190431 9.264552,-8.505377 z"
         style="fill:#b14d55;fill-opacity:1;stroke:#000000;stroke-width:0.50599998;stroke-linecap:butt;stroke-linejoin:round;stroke-miterlimit:4;stroke-dasharray:none;stroke-opacity:1" />
    </g>
    <path
       transform="translate(-24.459064,172.71793)"
       clip-path="url(#clipPath5883)"
       sodipodi:nodetypes="cccccccc"
       inkscape:connector-curvature="0"
       id="path6295"
       d="m 127.30931,57.834877 8.36037,-3e-4 3e-4,-2.16199 2.95504,2.95472 -2.95534,2.91868 v -2.12595 l -8.36037,-3.7e-4 c -0.43451,-0.52534 -0.48468,-1.01328 0,-1.58479 z"
       style="fill:#ff0000;fill-opacity:1;stroke:#000000;stroke-width:0.5;stroke-linecap:round;stroke-linejoin:round;stroke-miterlimit:4;stroke-dasharray:none;stroke-opacity:1" />
    <path
       transform="translate(-21.812415,154.39477)"
       clip-path="url(#clipPath5889)"
       sodipodi:nodetypes="cccccccc"
       inkscape:connector-curvature="0"
       id="path6297"
       d="m 132.35838,76.146469 8.36037,-2.9e-4 3e-4,-2.16199 2.95504,2.95472 -2.95534,2.91868 v -2.12595 l -8.36037,-3.7e-4 c -0.43451,-0.52534 -0.48468,-1.01328 0,-1.5848 z"
       style="fill:#ff0000;fill-opacity:1;stroke:#000000;stroke-width:0.5;stroke-linecap:round;stroke-linejoin:round;stroke-miterlimit:4;stroke-dasharray:none;stroke-opacity:1" />
    <g
       id="g6305"
       transform="translate(102.06569,171.54011)">
      <rect
         style="fill:#d45963;fill-opacity:1;stroke:#000000;stroke-width:1;stroke-linecap:round;stroke-linejoin:round;stroke-miterlimit:4;stroke-dasharray:none;stroke-dashoffset:0;stroke-opacity:1;paint-order:stroke fill markers"
         id="rect6299"
         width="18.708866"
         height="18.708866"
         x="13.883873"
         y="52.038319" />
      <path
         style="fill:#ff6b77;fill-opacity:1;stroke:#000000;stroke-width:0.50591624;stroke-linecap:butt;stroke-linejoin:round;stroke-miterlimit:4;stroke-dasharray:none;stroke-opacity:1"
         d="m 32.904868,51.837864 c 9.3118,-8.552625 9.3118,-8.552625 9.3118,-8.552625 H 23.045321 l -9.311796,8.552625 z"
         id="path6301"
         inkscape:connector-curvature="0" />
      <path
         style="fill:#b14d55;fill-opacity:1;stroke:#000000;stroke-width:0.50599998;stroke-linecap:butt;stroke-linejoin:round;stroke-miterlimit:4;stroke-dasharray:none;stroke-opacity:1"
         d="m 42.283486,62.361607 -9.423475,8.619439 0.0921,-19.190431 9.264552,-8.505377 z"
         id="path6303"
         inkscape:connector-curvature="0"
         sodipodi:nodetypes="ccccc" />
    </g>
    <path
       style="fill:#ff0000;fill-opacity:1;stroke:#000000;stroke-width:0.5;stroke-linecap:round;stroke-linejoin:round;stroke-miterlimit:4;stroke-dasharray:none;stroke-opacity:1"
       d="m 127.30931,57.834877 8.36037,-3e-4 3e-4,-2.16199 2.95504,2.95472 -2.95534,2.91868 v -2.12595 l -8.36037,-3.7e-4 c -0.43451,-0.52534 -0.48468,-1.01328 0,-1.58479 z"
       id="path6307"
       inkscape:connector-curvature="0"
       sodipodi:nodetypes="cccccccc"
       clip-path="url(#clipPath5883)"
       transform="translate(7.4799162,172.70647)" />
    <path
       transform="translate(-100.04156,229.55868)"
       clip-path="url(#clipPath5883)"
       sodipodi:nodetypes="cccccccc"
       inkscape:connector-curvature="0"
       id="path6309"
       d="m 127.30931,57.834877 8.36037,-3e-4 3e-4,-2.16199 2.95504,2.95472 -2.95534,2.91868 v -2.12595 l -8.36037,-3.7e-4 c -0.43451,-0.52534 -0.48468,-1.01328 0,-1.58479 z"
       style="fill:#ff0000;fill-opacity:1;stroke:#000000;stroke-width:0.5;stroke-linecap:round;stroke-linejoin:round;stroke-miterlimit:4;stroke-dasharray:none;stroke-opacity:1" />
    <path
       transform="translate(-97.394917,211.23552)"
       clip-path="url(#clipPath5889)"
       sodipodi:nodetypes="cccccccc"
       inkscape:connector-curvature="0"
       id="path6311"
       d="m 132.35838,76.146469 8.36037,-2.9e-4 3e-4,-2.16199 2.95504,2.95472 -2.95534,2.91868 v -2.12595 l -8.36037,-3.7e-4 c -0.43451,-0.52534 -0.48468,-1.01328 0,-1.5848 z"
       style="fill:#ff0000;fill-opacity:1;stroke:#000000;stroke-width:0.5;stroke-linecap:round;stroke-linejoin:round;stroke-miterlimit:4;stroke-dasharray:none;stroke-opacity:1" />
    <g
       transform="translate(-16.16167,116.32245)"
       id="g6325">
      <g
         transform="translate(42.683249,109.31324)"
         id="g6319">
        <rect
           y="52.038319"
           x="13.883873"
           height="18.708866"
           width="18.708866"
           id="rect6313"
           style="fill:#d45963;fill-opacity:1;stroke:#000000;stroke-width:1;stroke-linecap:round;stroke-linejoin:round;stroke-miterlimit:4;stroke-dasharray:none;stroke-dashoffset:0;stroke-opacity:1;paint-order:stroke fill markers" />
        <path
           inkscape:connector-curvature="0"
           id="path6315"
           d="m 32.904868,51.837864 c 9.3118,-8.552625 9.3118,-8.552625 9.3118,-8.552625 H 23.045321 l -9.311796,8.552625 z"
           style="fill:#ff6b77;fill-opacity:1;stroke:#000000;stroke-width:0.50591624;stroke-linecap:butt;stroke-linejoin:round;stroke-miterlimit:4;stroke-dasharray:none;stroke-opacity:1" />
        <path
           sodipodi:nodetypes="ccccc"
           inkscape:connector-curvature="0"
           id="path6317"
           d="m 42.283486,62.361607 -9.423475,8.619439 0.0921,-19.190431 9.264552,-8.505377 z"
           style="fill:#b14d55;fill-opacity:1;stroke:#000000;stroke-width:0.50599998;stroke-linecap:butt;stroke-linejoin:round;stroke-miterlimit:4;stroke-dasharray:none;stroke-opacity:1" />
      </g>
      <path
         sodipodi:nodetypes="ccccc"
         inkscape:connector-curvature="0"
         id="path6321"
         d="m 75.494829,171.50736 0.0314,8.91719 -19.242253,-0.10511 0.0184,-8.84986 z"
         style="fill:#ff0000;fill-opacity:1;stroke:#000000;stroke-width:0.50599998;stroke-linecap:butt;stroke-linejoin:round;stroke-miterlimit:4;stroke-dasharray:none;stroke-opacity:1" />
      <path
         sodipodi:nodetypes="ccccc"
         inkscape:connector-curvature="0"
         id="path6323"
         d="m 75.472416,171.57872 9.496652,-8.58373 v 8.67823 l -9.449405,8.7407 z"
         style="fill:#c70000;fill-opacity:1;stroke:#000000;stroke-width:0.50599998;stroke-linecap:butt;stroke-linejoin:round;stroke-miterlimit:4;stroke-dasharray:none;stroke-opacity:1" />
    </g>
    <path
       style="fill:#ff0000;fill-opacity:1;stroke:#000000;stroke-width:0.5;stroke-linecap:round;stroke-linejoin:round;stroke-miterlimit:4;stroke-dasharray:none;stroke-opacity:1"
       d="m 127.30931,57.834877 8.36037,-3e-4 3e-4,-2.16199 2.95504,2.95472 -2.95534,2.91868 v -2.12595 l -8.36037,-3.7e-4 c -0.43451,-0.52534 -0.48468,-1.01328 0,-1.58479 z"
       id="path6327"
       inkscape:connector-curvature="0"
       sodipodi:nodetypes="cccccccc"
       clip-path="url(#clipPath5883)"
       transform="translate(-68.197072,229.52687)" />
    <g
       transform="translate(-44.585489,167.34924)"
       id="g6345">
      <g
         id="g6335"
         transform="translate(114.56455,56.861592)">
        <rect
           style="fill:#d45963;fill-opacity:1;stroke:#000000;stroke-width:1;stroke-linecap:round;stroke-linejoin:round;stroke-miterlimit:4;stroke-dasharray:none;stroke-dashoffset:0;stroke-opacity:1;paint-order:stroke fill markers"
           id="rect6329"
           width="18.708866"
           height="18.708866"
           x="13.883873"
           y="52.038319" />
        <path
           style="fill:#008dff;fill-opacity:1;stroke:#000000;stroke-width:0.50591624;stroke-linecap:butt;stroke-linejoin:round;stroke-miterlimit:4;stroke-dasharray:none;stroke-opacity:1"
           d="m 32.904868,51.837864 c 9.3118,-8.552625 9.3118,-8.552625 9.3118,-8.552625 H 23.045321 l -9.311796,8.552625 z"
           id="path6331"
           inkscape:connector-curvature="0" />
        <path
           style="fill:#b14d55;fill-opacity:1;stroke:#000000;stroke-width:0.50599998;stroke-linecap:butt;stroke-linejoin:round;stroke-miterlimit:4;stroke-dasharray:none;stroke-opacity:1"
           d="m 42.283486,62.361607 -9.423475,8.619439 0.0921,-19.190431 9.264552,-8.505377 z"
           id="path6333"
           inkscape:connector-curvature="0"
           sodipodi:nodetypes="ccccc" />
      </g>
      <path
         style="fill:#0073ff;fill-opacity:1;stroke:#000000;stroke-width:0.50599998;stroke-linecap:butt;stroke-linejoin:round;stroke-miterlimit:4;stroke-dasharray:none;stroke-opacity:1"
         d="m 147.44865,108.70514 -19.20273,0.15099 -0.025,6.35887 19.2569,-0.025 z"
         id="path6337"
         inkscape:connector-curvature="0"
         sodipodi:nodetypes="ccccc" />
      <path
         sodipodi:nodetypes="ccccc"
         inkscape:connector-curvature="0"
         id="path6339"
         d="m 147.44865,121.33436 -19.20273,0.15099 -0.025,6.35887 19.2569,-0.025 z"
         style="fill:#ff0000;fill-opacity:1;stroke:#000000;stroke-width:0.50599998;stroke-linecap:butt;stroke-linejoin:round;stroke-miterlimit:4;stroke-dasharray:none;stroke-opacity:1" />
      <path
         style="fill:#c70000;fill-opacity:1;stroke:#000000;stroke-width:0.50599998;stroke-linecap:butt;stroke-linejoin:round;stroke-miterlimit:4;stroke-dasharray:none;stroke-opacity:1"
         d="m 147.41071,121.33556 9.35491,-8.70253 0.0472,6.60004 -9.40216,8.69346 z"
         id="path6341"
         inkscape:connector-curvature="0"
         sodipodi:nodetypes="ccccc" />
      <path
         sodipodi:nodetypes="ccccc"
         inkscape:connector-curvature="0"
         id="path6343"
         d="m 147.41071,108.83675 9.35491,-8.70253 0.0472,6.60004 -9.40216,8.69346 z"
         style="fill:#0060d4;fill-opacity:1;stroke:#000000;stroke-width:0.50599998;stroke-linecap:butt;stroke-linejoin:round;stroke-miterlimit:4;stroke-dasharray:none;stroke-opacity:1" />
    </g>
    <path
       transform="translate(-25.222208,230.36501)"
       clip-path="url(#clipPath5883)"
       sodipodi:nodetypes="cccccccc"
       inkscape:connector-curvature="0"
       id="path6347"
       d="m 127.30931,57.834877 8.36037,-3e-4 3e-4,-2.16199 2.95504,2.95472 -2.95534,2.91868 v -2.12595 l -8.36037,-3.7e-4 c -0.43451,-0.52534 -0.48468,-1.01328 0,-1.58479 z"
       style="fill:#ff0000;fill-opacity:1;stroke:#000000;stroke-width:0.5;stroke-linecap:round;stroke-linejoin:round;stroke-miterlimit:4;stroke-dasharray:none;stroke-opacity:1" />
    <path
       transform="translate(-22.531984,212.05853)"
       clip-path="url(#clipPath5889)"
       sodipodi:nodetypes="cccccccc"
       inkscape:connector-curvature="0"
       id="path6349"
       d="m 132.35838,76.146469 8.36037,-2.9e-4 3e-4,-2.16199 2.95504,2.95472 -2.95534,2.91868 v -2.12595 l -8.36037,-3.7e-4 c -0.43451,-0.52534 -0.48468,-1.01328 0,-1.5848 z"
       style="fill:#ff0000;fill-opacity:1;stroke:#000000;stroke-width:0.5;stroke-linecap:round;stroke-linejoin:round;stroke-miterlimit:4;stroke-dasharray:none;stroke-opacity:1" />
    <flowRoot
       xml:space="preserve"
       id="flowRoot6427"
       style="font-style:normal;font-weight:normal;font-size:18.66666603px;line-height:25px;font-family:sans-serif;letter-spacing:0px;word-spacing:0px;fill:#000000;fill-opacity:1;stroke:none"
       transform="matrix(0.26458333,0,0,0.26458333,-34.338496,-28.761378)"><flowRegion
         id="flowRegion6429"><rect
           id="rect6431"
           width="362.64478"
           height="98.994949"
           x="149.50258"
           y="870.9917" /></flowRegion><flowPara
         id="flowPara6433"
         style="font-style:normal;font-variant:normal;font-weight:bold;font-stretch:normal;font-family:sans-serif;-inkscape-font-specification:'sans-serif Bold'">Pennes Bioheat Equation</flowPara></flowRoot>    <flowRoot
       transform="matrix(0.26458333,0,0,0.26458333,48.211544,-28.761378)"
       style="font-style:normal;font-weight:normal;font-size:18.66666603px;line-height:25px;font-family:sans-serif;letter-spacing:0px;word-spacing:0px;fill:#000000;fill-opacity:1;stroke:none"
       id="flowRoot6441"
       xml:space="preserve"><flowRegion
         id="flowRegion6437"><rect
           y="870.9917"
           x="149.50258"
           height="98.994949"
           width="362.64478"
           id="rect6435" /></flowRegion><flowPara
         style="font-style:normal;font-variant:normal;font-weight:bold;font-stretch:normal;font-family:sans-serif;-inkscape-font-specification:'sans-serif Bold'"
         id="flowPara6439">Wulff/Klinger Model</flowPara></flowRoot>    <flowRoot
       xml:space="preserve"
       id="flowRoot6449"
       style="font-style:normal;font-weight:normal;font-size:18.66666603px;line-height:25px;font-family:sans-serif;letter-spacing:0px;word-spacing:0px;fill:#000000;fill-opacity:1;stroke:none"
       transform="matrix(0.26458333,0,0,0.26458333,42.390707,24.684546)"><flowRegion
         id="flowRegion6445"><rect
           id="rect6443"
           width="362.64478"
           height="98.994949"
           x="149.50258"
           y="870.9917" /></flowRegion><flowPara
         id="flowPara6447"
         style="font-style:normal;font-variant:normal;font-weight:bold;font-stretch:normal;font-family:sans-serif;-inkscape-font-specification:'sans-serif Bold'">Counter Current Model</flowPara></flowRoot>    <flowRoot
       transform="matrix(0.26458333,0,0,0.26458333,-35.39683,24.684546)"
       style="font-style:normal;font-weight:normal;font-size:18.66666603px;line-height:25px;font-family:sans-serif;letter-spacing:0px;word-spacing:0px;fill:#000000;fill-opacity:1;stroke:none"
       id="flowRoot6457"
       xml:space="preserve"><flowRegion
         id="flowRegion6453"><rect
           y="870.9917"
           x="149.50258"
           height="98.994949"
           width="362.64478"
           id="rect6451" /></flowRegion><flowPara
         style="font-style:normal;font-variant:normal;font-weight:bold;font-stretch:normal;font-family:sans-serif;-inkscape-font-specification:'sans-serif Bold'"
         id="flowPara6455">Porous Two Phase Model</flowPara></flowRoot>    <path
       sodipodi:nodetypes="cccccccc"
       inkscape:connector-curvature="0"
       id="path6369"
       d="m 106.12922,87.476086 8.36037,-3e-4 3e-4,-2.16199 2.95504,2.95472 -2.95534,2.91868 v -2.12595 l -8.36037,-3.7e-4 c -0.43451,-0.52534 -0.48468,-1.01328 0,-1.58479 z"
       style="fill:#ff0000;fill-opacity:1;stroke:#000000;stroke-width:0.5;stroke-linecap:round;stroke-linejoin:round;stroke-miterlimit:4;stroke-dasharray:none;stroke-opacity:1"
       clip-path="url(#clipPath6491)"
       transform="rotate(180,113.311,182.00726)" />
    <g
       transform="translate(-13.364635,167.34924)"
       id="g6367">
      <g
         transform="translate(114.56455,56.861592)"
         id="g6357">
        <rect
           y="52.038319"
           x="13.883873"
           height="18.708866"
           width="18.708866"
           id="rect6351"
           style="fill:#d45963;fill-opacity:1;stroke:#000000;stroke-width:1;stroke-linecap:round;stroke-linejoin:round;stroke-miterlimit:4;stroke-dasharray:none;stroke-dashoffset:0;stroke-opacity:1;paint-order:stroke fill markers" />
        <path
           inkscape:connector-curvature="0"
           id="path6353"
           d="m 32.904868,51.837864 c 9.3118,-8.552625 9.3118,-8.552625 9.3118,-8.552625 H 23.045321 l -9.311796,8.552625 z"
           style="fill:#008dff;fill-opacity:1;stroke:#000000;stroke-width:0.50591624;stroke-linecap:butt;stroke-linejoin:round;stroke-miterlimit:4;stroke-dasharray:none;stroke-opacity:1" />
        <path
           sodipodi:nodetypes="ccccc"
           inkscape:connector-curvature="0"
           id="path6355"
           d="m 42.283486,62.361607 -9.423475,8.619439 0.0921,-19.190431 9.264552,-8.505377 z"
           style="fill:#b14d55;fill-opacity:1;stroke:#000000;stroke-width:0.50599998;stroke-linecap:butt;stroke-linejoin:round;stroke-miterlimit:4;stroke-dasharray:none;stroke-opacity:1" />
      </g>
      <path
         sodipodi:nodetypes="ccccc"
         inkscape:connector-curvature="0"
         id="path6359"
         d="m 147.44865,108.70514 -19.20273,0.15099 -0.025,6.35887 19.2569,-0.025 z"
         style="fill:#0073ff;fill-opacity:1;stroke:#000000;stroke-width:0.50599998;stroke-linecap:butt;stroke-linejoin:round;stroke-miterlimit:4;stroke-dasharray:none;stroke-opacity:1" />
      <path
         style="fill:#ff0000;fill-opacity:1;stroke:#000000;stroke-width:0.50599998;stroke-linecap:butt;stroke-linejoin:round;stroke-miterlimit:4;stroke-dasharray:none;stroke-opacity:1"
         d="m 147.44865,121.33436 -19.20273,0.15099 -0.025,6.35887 19.2569,-0.025 z"
         id="path6361"
         inkscape:connector-curvature="0"
         sodipodi:nodetypes="ccccc" />
      <path
         sodipodi:nodetypes="ccccc"
         inkscape:connector-curvature="0"
         id="path6363"
         d="m 147.41071,121.33556 9.35491,-8.70253 0.0472,6.60004 -9.40216,8.69346 z"
         style="fill:#c70000;fill-opacity:1;stroke:#000000;stroke-width:0.50599998;stroke-linecap:butt;stroke-linejoin:round;stroke-miterlimit:4;stroke-dasharray:none;stroke-opacity:1" />
      <path
         style="fill:#0060d4;fill-opacity:1;stroke:#000000;stroke-width:0.50599998;stroke-linecap:butt;stroke-linejoin:round;stroke-miterlimit:4;stroke-dasharray:none;stroke-opacity:1"
         d="m 147.41071,108.83675 9.35491,-8.70253 0.0472,6.60004 -9.40216,8.69346 z"
         id="path6365"
         inkscape:connector-curvature="0"
         sodipodi:nodetypes="ccccc" />
    </g>
    <g
       id="g6485"
       transform="translate(-38.877858,83.288426)">
      <path
         clip-path="url(#clipPath6461)"
         sodipodi:nodetypes="cccccccc"
         inkscape:connector-curvature="0"
         id="path6471"
         d="m 7.2626599,207.42012 8.3603761,-2.9e-4 3e-4,-2.16199 2.955039,2.95472 -2.955339,2.91868 v -2.12595 l -8.3603761,-3.7e-4 c -0.43451,-0.52534 -0.48468,-1.01328 0,-1.5848 z"
         style="fill:#ff0000;fill-opacity:1;stroke:#000000;stroke-width:0.5;stroke-linecap:round;stroke-linejoin:round;stroke-miterlimit:4;stroke-dasharray:none;stroke-opacity:1"
         transform="rotate(180,99.071339,200.36559)" />
      <path
         transform="translate(45.276949,133.9101)"
         clip-path="url(#clipPath6193)"
         sodipodi:nodetypes="cccccccc"
         inkscape:connector-curvature="0"
         id="path6481"
         d="m 127.30931,57.834877 8.36037,-3e-4 3e-4,-2.16199 2.95504,2.95472 -2.95534,2.91868 v -2.12595 l -8.36037,-3.7e-4 c -0.43451,-0.52534 -0.48468,-1.01328 0,-1.58479 z"
         style="fill:#ff0000;fill-opacity:1;stroke:#000000;stroke-width:0.5;stroke-linecap:round;stroke-linejoin:round;stroke-miterlimit:4;stroke-dasharray:none;stroke-opacity:1" />
    </g>
    <path
       transform="translate(6.3150752,230.39438)"
       clip-path="url(#clipPath5883)"
       sodipodi:nodetypes="cccccccc"
       inkscape:connector-curvature="0"
       id="path6371"
       d="m 127.30931,57.834877 8.36037,-3e-4 3e-4,-2.16199 2.95504,2.95472 -2.95534,2.91868 v -2.12595 l -8.36037,-3.7e-4 c -0.43451,-0.52534 -0.48468,-1.01328 0,-1.58479 z"
       style="fill:#ff0000;fill-opacity:1;stroke:#000000;stroke-width:0.5;stroke-linecap:round;stroke-linejoin:round;stroke-miterlimit:4;stroke-dasharray:none;stroke-opacity:1" />
    <path
       transform="translate(-25.041445,217.18477)"
       clip-path="url(#clipPath6193)"
       sodipodi:nodetypes="cccccccc"
       inkscape:connector-curvature="0"
       id="path6379"
       d="m 127.30931,57.834877 8.36037,-3e-4 3e-4,-2.16199 2.95504,2.95472 -2.95534,2.91868 v -2.12595 l -8.36037,-3.7e-4 c -0.43451,-0.52534 -0.48468,-1.01328 0,-1.58479 z"
       style="fill:#ff0000;fill-opacity:1;stroke:#000000;stroke-width:0.5;stroke-linecap:round;stroke-linejoin:round;stroke-miterlimit:4;stroke-dasharray:none;stroke-opacity:1" />
  </g>
</svg>
