<?xml version="1.0" encoding="UTF-8" standalone="no"?>
<!-- Created with Inkscape (http://www.inkscape.org/) -->

<svg
   xmlns:dc="http://purl.org/dc/elements/1.1/"
   xmlns:cc="http://creativecommons.org/ns#"
   xmlns:rdf="http://www.w3.org/1999/02/22-rdf-syntax-ns#"
   xmlns:svg="http://www.w3.org/2000/svg"
   xmlns="http://www.w3.org/2000/svg"
   xmlns:sodipodi="http://sodipodi.sourceforge.net/DTD/sodipodi-0.dtd"
   xmlns:inkscape="http://www.inkscape.org/namespaces/inkscape"
   version="1.1"
   id="svg4607"
   width="560.06403"
   height="420.09601"
   viewBox="0 0 560.06403 420.09601"
   sodipodi:docname="OutlineTemplate.svg"
   inkscape:version="0.92.0 r15299">
  <metadata
     id="metadata4613">
    <rdf:RDF>
      <cc:Work
         rdf:about="">
        <dc:format>image/svg+xml</dc:format>
        <dc:type
           rdf:resource="http://purl.org/dc/dcmitype/StillImage" />
        <dc:title></dc:title>
      </cc:Work>
    </rdf:RDF>
  </metadata>
  <defs
     id="defs4611" />
  <sodipodi:namedview
     pagecolor="#ffffff"
     bordercolor="#666666"
     borderopacity="1"
     objecttolerance="10"
     gridtolerance="10"
     guidetolerance="10"
     inkscape:pageopacity="0"
     inkscape:pageshadow="2"
     inkscape:window-width="1280"
     inkscape:window-height="962"
     id="namedview4609"
     showgrid="false"
     inkscape:zoom="1.4342526"
     inkscape:cx="306.72255"
     inkscape:cy="224.77442"
     inkscape:window-x="-8"
     inkscape:window-y="-8"
     inkscape:window-maximized="1"
     inkscape:current-layer="svg4607" />
  <g
     transform="matrix(6.2578562,0,-0.01346217,6.104719,34.609351,-612.95211)"
     id="g5875">
    <path
       inkscape:connector-curvature="0"
       id="path5836"
       d="m 29.14259,108.06291 h 9.821562 v 0.72454 h 2.334629 v 0.88555 h 1.529587 v 0.72454 h 1.610095 v 0.72454 h 0.72454 v 0.80505 h 0.966057 v 0.80504 h 0.789493 v 0.75147 h 0.796957 v 0.74003 h 0.825415 v 0.74003 h 0.683105 v 0.71156 h 0.85388 v 0.76849 h 0.796957 v 1.48006 h 0.85388 v 1.53699 h 0.711563 v 1.56335 h 0.934165 v 1.36858 h 0.72454 v 1.65034 h 0.845301 v 2.89817 h 0.764794 v 3.94472 h 0.764794 v 10.43417 h -0.817307 v 3.07397 h -0.85388 v 1.53699 h -0.683105 v 2.10624 h -0.910809 v 1.65083 h -0.683105 v 0.74003 h -0.910803 v 1.53699 h -0.740028 v 0.62617 h -0.740034 v 0.91081 h -0.796951 v 0.62618 h -0.910809 v 0.79695 h -0.796951 v 0.74003 h -0.796957 v 0.79696 h -1.593908 v 0.74003 h -0.910808 v 0.6831 h -1.480057 v 0.79696 h -2.22009 v 0.74003 h -2.447793 v 0.9108 h -9.848087 v -0.85388 h -3.130893 v -0.74003 h -1.650836 v -0.85388 h -1.423134 v -0.62618 h -0.910802 v -0.79695 h -0.683106 v -0.74003 h -1.764688 v -0.74003 h -0.85388 v -0.79696 h -0.740028 v -0.6831 h -0.85388 v -0.68311 H 15.63807 v -1.65083 h -0.85388 v -0.74003 h -0.85388 v -1.48006 h -0.683105 v -1.48006 h -0.85388 v -2.27701 h -0.910809 v -2.33394 H 10.85634 V 131.5859 h 0.736245 v -3.87987 h 0.845295 v -2.93842 h 0.764794 v -2.29438 h 1.006311 v -1.44908 h 0.644038 v -1.44909 h 0.805041 v -1.61009 h 0.845302 v -0.80504 h 0.764793 v -1.56984 h 0.805048 v -0.72455 h 0.805041 V 114.141 h 0.764794 v -0.68429 h 0.764793 v -0.72454 h 0.845302 v -0.8453 h 0.72454 v -0.84529 h 0.885549 v -0.64404 h 1.569841 V 109.673 h 1.610095 v -0.80505 h 3.17993 z"
       style="fill:none;stroke:#000000;stroke-width:0.48199999;stroke-linecap:butt;stroke-linejoin:round;stroke-miterlimit:4;stroke-dasharray:none;stroke-opacity:1" />
    <path
       inkscape:connector-curvature="0"
       id="path5865"
       d="m 34.029668,144.86458 v -0.72052 h 0.803201 v -3.77976 h -2.362353 v 4.51209 h 0.755954 v 1.54734 h 1.606399 v -1.53553 z"
       style="fill:none;stroke:#000000;stroke-width:0.48199999;stroke-linecap:butt;stroke-linejoin:round;stroke-miterlimit:4;stroke-dasharray:none;stroke-opacity:1" />
    <path
       inkscape:connector-curvature="0"
       id="path5867"
       d="m 31.638031,132.82969 v 2.20497 h -0.80181 v 0.7684 h -1.637024 v 0.80181 h -1.536801 v 0.73499 h -0.801809 v 0.73499 h -0.902034 v 2.2718 H 25.25697 v 2.30519 h 0.734991 v 0.70159 h 1.637026 v -0.735 h 1.57021 v -0.76839 h 0.835215 v -1.5368 h 0.835218 v -0.70159 h 0.768401 v -0.7684 h 0.801809 v -0.8018 h 2.338607 v 0.8018 h 0.902036 v 0.735 h 0.768397 v 0.83521 h 0.734992 v 0.66818 h 0.801809 v 0.8018 h 1.603618 v 0.73499 h 1.737252 v -0.73499 h 0.7684 v -3.00678 h -0.868627 v -1.50339 h -1.603616 v -0.73499 h -0.801809 v -0.7684 h -1.603618 v -0.80181 h -0.668174 v -0.7684 h -0.868624 v -2.3052 h 0.768397 v -1.40316 h 0.80181 v -3.90882 h 0.801809 v -2.97337 H 36.44888 v 0.83521 h -1.637024 v 0.735 h -0.835218 v 0.8018 h -0.668174 v -0.8018 h -1.670433 v -0.7684 h -0.835219 v -0.83522 h -2.338607 v 2.3052 h 0.668174 v 1.5368 h 0.935442 v 4.57699 h 0.7684 v 0.70158 z"
       style="fill:none;stroke:#000000;stroke-width:0.48199999;stroke-linecap:butt;stroke-linejoin:round;stroke-miterlimit:4;stroke-dasharray:none;stroke-opacity:1" />
    <path
       inkscape:connector-curvature="0"
       id="path5869"
       d="m 31.604622,113.85355 v 0.86743 h 0.901329 v 7.51228 h 0.755954 v 1.5119 h 1.606397 v -9.87463 h 0.850448 v -0.75595 h 0.850447 v 0.8032 H 39.6875 v 0.94494 h 0.755951 v 0.70871 h 1.653646 v 0.75595 h 1.511906 v 0.7087 h 0.850445 v 0.61421 h 0.708707 v 1.55916 h 0.944939 v 0.7087 h 0.708707 v 1.55915 h 0.850445 v 1.55916 h 0.755952 v 2.92931 h 0.803201 v 2.36235 h 0.850444 v 2.92932 h 0.850448 v 2.3151 h -0.850448 v 0.75595 h -0.944938 v 1.46466 h 0.897692 v 0.8032 h 0.850447 v 4.53572 h -0.755951 v 1.46465 h -0.897694 v 1.51191 h -0.803201 v 1.5119 h -0.708705 v 1.51191 h -0.897692 v 1.55915 h -0.751215 v 0.80904 H 45.16855 v 0.63476 h -0.768401 v 0.80181 h -0.734991 v 0.7684 h -0.902033 v 0.7684 h -1.536801 v 0.73499 h -0.835218 v 0.7684 H 38.78749 v 0.80181 h -2.305201 v -0.90204 h -0.801806 v -0.66817 H 34.778447 V 152.474 h -1.536801 v 0.7684 H 32.43984 v 1.5368 h -1.536801 v 0.60136 h -0.835218 v -0.63477 h -2.438834 v -0.80181 h -1.703843 v -0.73499 h -0.701583 v -0.86863 h -1.637026 v -0.66817 h -0.734991 v -0.73499 h -0.835217 v -0.83522 H 21.18111 v -0.66817 h -0.7684 v -1.60362 h -0.868626 v -1.43657 h -0.701582 v -0.7684 h -0.868626 v -1.43658 h -0.734992 v -1.50339 h -0.768399 v -5.41221 h 0.668173 v -2.83973 h -0.768399 v -3.17383 h 0.902034 v -2.90655 h 0.7684 v -0.86863 h 0.7684 v -3.67496 h 0.801808 v -1.57021 h 0.7684 v -1.5702 h 0.801809 v -1.43658 h 0.835217 v -0.7684 h 0.835217 v -1.5368 h 1.5368 v -0.80181 h 1.5368 v -0.7684 h 0.868625 v -0.66817 h 1.57021 v -0.83522 z"
       style="fill:none;stroke:#000000;stroke-width:0.48199999;stroke-linecap:butt;stroke-linejoin:round;stroke-miterlimit:4;stroke-dasharray:none;stroke-opacity:1" />
  </g>
</svg>
